<?xml version="1.0" encoding="utf-8"?>
<!-- Generator: Adobe Illustrator 27.7.0, SVG Export Plug-In . SVG Version: 6.00 Build 0)  -->
<svg version="1.1" id="Layer_1" xmlns="http://www.w3.org/2000/svg" xmlns:xlink="http://www.w3.org/1999/xlink" x="0px" y="0px"
	 viewBox="0 0 255.1 141.7" style="enable-background:new 0 0 255.1 141.7;" xml:space="preserve">
<style type="text/css">
	.st0{fill:#D53C27;}
</style>
<g>
	<g>
		<path class="st0" d="M40.2,83.7c-5.7,0-9.9-3.9-9.9-10.1c0-6.2,4.4-10.1,10.1-10.1s10.1,3.9,10.1,10.1
			C50.4,79.8,45.9,83.7,40.2,83.7z M40.2,78.8c2.7,0,5.3-1.7,5.3-5.2c0-3.5-2.5-5.2-5.2-5.2c-2.7,0-5.1,1.7-5.1,5.2
			C35.1,77.1,37.4,78.8,40.2,78.8z"/>
		<polygon class="st0" points="55.7,63.9 60.6,78.8 65.6,63.9 70.8,63.9 63.6,83.4 57.6,83.4 50.4,63.9 		"/>
		<path class="st0" d="M80.7,83.7c-5.7,0-9.8-3.9-9.8-10.1c0-6.2,4-10.1,9.8-10.1c5.6,0,9.6,3.8,9.6,9.7c0,0.6,0,1.3-0.1,1.9H75.9
			c0.2,2.9,2.2,4.5,4.7,4.5c2.1,0,3.3-1.1,3.9-2.4h5.3C88.7,80.9,85.5,83.7,80.7,83.7z M75.9,71.8h9.3c-0.1-2.6-2.1-4.2-4.7-4.2
			C78.2,67.6,76.3,69.1,75.9,71.8z"/>
		<path class="st0" d="M98,83.4h-4.9V63.9H98v3c1.2-2,3.3-3.3,6-3.3v5.2h-1.3c-2.9,0-4.7,1.1-4.7,4.9V83.4z"/>
		<path class="st0" d="M115,63.5c4.9,0,8.1,2.5,9.2,6.9h-5.3c-0.6-1.7-1.9-2.7-3.9-2.7c-2.7,0-4.6,2.1-4.6,5.9
			c0,3.8,1.8,5.9,4.6,5.9c2,0,3.3-0.9,3.9-2.7h5.3c-1.1,4.2-4.3,6.9-9.2,6.9c-5.6,0-9.7-3.9-9.7-10.1
			C105.3,67.5,109.3,63.5,115,63.5z"/>
		<path class="st0" d="M136.2,83.7c-5.7,0-9.9-3.9-9.9-10.1c0-6.2,4.4-10.1,10.1-10.1c5.7,0,10.1,3.9,10.1,10.1
			C146.4,79.8,141.9,83.7,136.2,83.7z M136.2,78.8c2.7,0,5.3-1.7,5.3-5.2c0-3.5-2.5-5.2-5.2-5.2c-2.7,0-5.1,1.7-5.1,5.2
			C131.1,77.1,133.5,78.8,136.2,78.8z"/>
		<path class="st0" d="M176.1,72.6c0-3.1-1.7-4.7-4.3-4.7c-2.6,0-4.4,1.6-4.4,4.7v10.8h-4.9V72.6c0-3.1-1.7-4.7-4.3-4.7
			c-2.7,0-4.4,1.6-4.4,4.7v10.8h-4.9V63.9h4.9v2.4c1.2-1.6,3.3-2.6,5.7-2.6c3,0,5.5,1.3,6.9,3.7c1.3-2.2,3.8-3.7,6.7-3.7
			c4.7,0,8,3,8,8.4v11.5h-4.9V72.6z"/>
		<path class="st0" d="M193,83.7c-5.7,0-9.8-3.9-9.8-10.1c0-6.2,4-10.1,9.8-10.1c5.6,0,9.6,3.8,9.6,9.7c0,0.6,0,1.3-0.1,1.9h-14.3
			c0.2,2.9,2.2,4.5,4.7,4.5c2.1,0,3.3-1.1,3.9-2.4h5.3C201.1,80.9,197.8,83.7,193,83.7z M188.2,71.8h9.3c-0.1-2.6-2.1-4.2-4.7-4.2
			C190.5,67.6,188.6,69.1,188.2,71.8z"/>
		<path class="st0" d="M209.9,83.4H205V63.9h4.9v3c1.2-2,3.3-3.3,6-3.3v5.2h-1.3c-2.9,0-4.7,1.1-4.7,4.9V83.4z"/>
		<g>
			<g>
				<path class="st0" d="M224.7,56.6h-0.4c0,0.9-0.4,1.8-1,2.4c-0.6,0.6-1.4,1-2.4,1c-0.9,0-1.8-0.4-2.4-1c-0.6-0.6-1-1.4-1-2.4
					c0-0.9,0.4-1.8,1-2.4c0.6-0.6,1.4-1,2.4-1c0.9,0,1.8,0.4,2.4,1c0.6,0.6,1,1.4,1,2.4H224.7h0.4c0-2.2-1.8-4.1-4.1-4.1
					c-2.2,0-4.1,1.8-4.1,4.1c0,2.2,1.8,4.1,4.1,4.1c2.2,0,4.1-1.8,4.1-4.1H224.7z"/>
			</g>
			<path class="st0" d="M219.4,58.9v-4.6h1.4c0.5,0,0.9,0.1,1.2,0.4c0.3,0.3,0.5,0.6,0.5,1.1c0,0.5-0.2,0.9-0.5,1.1
				c-0.2,0.2-0.4,0.3-0.7,0.3l1.3,1.7h-1l-1.2-1.8v1.8H219.4z M220.3,56.5h0.5c0.3,0,0.5-0.1,0.6-0.2c0.1-0.1,0.2-0.3,0.2-0.5
				c0-0.2-0.1-0.4-0.2-0.5c-0.2-0.1-0.3-0.2-0.6-0.2h-0.6V56.5z"/>
		</g>
	</g>
	<g>
		<g>
			<path class="st0" d="M53.1,94.6v-4.1h0.9c0.6,0,1.1,0.1,1.4,0.3c0.3,0.2,0.5,0.4,0.7,0.7c0.2,0.3,0.2,0.7,0.2,1
				c0,0.4-0.1,0.7-0.3,1.1c-0.2,0.3-0.4,0.6-0.7,0.7c-0.3,0.2-0.8,0.2-1.3,0.2H53.1z M53.9,93.9h0.2c0.4,0,0.8-0.1,1-0.2
				c0.2-0.1,0.3-0.3,0.4-0.5c0.1-0.2,0.2-0.4,0.2-0.6c0-0.2-0.1-0.5-0.2-0.7c-0.1-0.2-0.3-0.4-0.5-0.5c-0.2-0.1-0.5-0.2-1-0.2h-0.1
				V93.9z"/>
			<path class="st0" d="M63.1,94.6v-4.1h0.8v4.1H63.1z"/>
			<path class="st0" d="M71.8,94.6l-1.6-4.1H71l1.1,3.1l1.1-3.1H74l-1.6,4.1H71.8z"/>
			<path class="st0" d="M80.4,94.6v-4.1h0.8v4.1H80.4z"/>
			<path class="st0" d="M88,94.6v-4.1h0.9l1.7,3v-3h0.8v4.1h-0.8l-1.7-2.9v2.9H88z"/>
			<path class="st0" d="M98.1,94.6v-4.1h2.2v0.7h-1.4v1h1.4v0.7h-1.4v1h1.4v0.7H98.1z"/>
			<path class="st0" d="M114.5,94.6v-4.1h2.2v0.7h-1.4v1h1.4v0.7h-1.4v1h1.4v0.7H114.5z"/>
			<path class="st0" d="M123.4,94.6v-4.1h0.9l1.7,3v-3h0.8v4.1h-0.8l-1.7-2.9v2.9H123.4z"/>
			<path class="st0" d="M133.1,94.6l1.7-4.1h0.6l1.7,4.1h-0.8l-0.4-1h-1.4l-0.4,1H133.1z M134.7,92.8h0.9l-0.4-1.2L134.7,92.8z"/>
			<path class="st0" d="M143.5,94.6v-4.1h0.8c0.3,0,0.5,0,0.6,0c0.2,0,0.4,0.1,0.5,0.2c0.1,0.1,0.3,0.2,0.4,0.4
				c0.1,0.2,0.1,0.3,0.1,0.5c0,0.3-0.2,0.6-0.5,0.8c0.5,0.2,0.7,0.5,0.7,1c0,0.4-0.2,0.7-0.5,1c-0.2,0.2-0.6,0.2-1,0.2H143.5z
				 M144.3,92.1h0.2c0.2,0,0.4,0,0.5-0.1c0.1-0.1,0.2-0.2,0.2-0.4c0-0.3-0.2-0.4-0.6-0.4h-0.3V92.1z M144.3,93.9h0.4
				c0.5,0,0.8-0.2,0.8-0.5c0-0.4-0.2-0.5-0.7-0.5h-0.4V93.9z"/>
			<path class="st0" d="M152.8,94.6v-4.1h0.8v3.4h1.2v0.7H152.8z"/>
			<path class="st0" d="M161.3,94.6v-4.1h2.2v0.7h-1.4v1h1.4v0.7h-1.4v1h1.4v0.7H161.3z"/>
			<path class="st0" d="M170.2,94.6v-4.1h1l1.1,3.1l1.1-3.1h1v4.1h-0.8v-3l-1.1,3H172l-1.1-3v3H170.2z"/>
			<path class="st0" d="M181.2,94.6v-4.1h2.2v0.7H182v1h1.4v0.7H182v1h1.4v0.7H181.2z"/>
			<path class="st0" d="M190.1,94.6v-4.1h0.9l1.7,3v-3h0.8v4.1h-0.8l-1.7-2.9v2.9H190.1z"/>
			<path class="st0" d="M200.6,94.6v-3.4h-0.8v-0.7h2.3v0.7h-0.8v3.4H200.6z"/>
		</g>
	</g>
</g>
</svg>
